<svg width="128" height="128" viewBox="0 25 128 103" xmlns="http://www.w3.org/2000/svg">
  <!-- Gradient definitions for more polished look -->
  <defs>
    <radialGradient id="pondGradient" cx="0.5" cy="0.3" r="0.7">
      <stop offset="0%" stop-color="#42A5F5"/>
      <stop offset="100%" stop-color="#1E88E5"/>
    </radialGradient>
    <linearGradient id="duckGradient" x1="0%" y1="0%" x2="100%" y2="100%">
      <stop offset="0%" stop-color="#FFF176"/>
      <stop offset="100%" stop-color="#FFEB3B"/>
    </linearGradient>
    <linearGradient id="houseGradient" x1="0%" y1="0%" x2="100%" y2="100%">
      <stop offset="0%" stop-color="#A1887F"/>
      <stop offset="100%" stop-color="#6D4C41"/>
    </linearGradient>
    <linearGradient id="roofGradient" x1="0%" y1="0%" x2="100%" y2="100%">
      <stop offset="0%" stop-color="#8D6E63"/>
      <stop offset="100%" stop-color="#4E342E"/>
    </linearGradient>
  </defs>
  
  <!-- Main pond with gradient -->
  <ellipse cx="64" cy="85" rx="58" ry="38" fill="url(#pondGradient)"/>
  
  <!-- Water surface highlights -->
  <ellipse cx="64" cy="82" rx="55" ry="35" fill="#64B5F6" opacity="0.6"/>
  
  <!-- Gentle water ripples -->
  <path d="M15 82 Q25 79 35 82 T55 82 T75 82 T95 82 T113 82" 
        stroke="#FFFFFF" stroke-width="1.5" fill="none" opacity="0.4"/>
  <path d="M20 86 Q35 84 50 86 T80 86 T110 86" 
        stroke="#FFFFFF" stroke-width="1" fill="none" opacity="0.3"/>
  
  <!-- Duck house stilts (only tops visible above water) -->
  <g transform="translate(84, 40) scale(1.3)">
    <!-- Stilts sticking out of water -->
    <rect x="3" y="24" width="2" height="8" fill="#795548" rx="0.5"/>
    <rect x="19" y="24" width="2" height="8" fill="#795548" rx="0.5"/>
    <rect x="11" y="24" width="2" height="8" fill="#6D4C41" rx="0.5"/>
    <!-- Stilt highlights -->
    <rect x="3.3" y="24" width="0.8" height="8" fill="#8D6E63" opacity="0.6"/>
    <rect x="19.3" y="24" width="0.8" height="8" fill="#8D6E63" opacity="0.6"/>
    <rect x="11.3" y="24" width="0.8" height="8" fill="#795548" opacity="0.6"/>
  </g>
  
  <!-- Duck house - cozy and duck-specific -->
  <g transform="translate(84, 40) scale(1.3)">
    <!-- House base with gradient -->
    <rect x="0" y="10" width="24" height="16" fill="url(#houseGradient)" rx="2"/>
    <!-- Wood grain lines on house (behind entrance) -->
    <line x1="2" y1="14" x2="22" y2="14" stroke="#6D4C41" stroke-width="0.3" opacity="0.6"/>
    <line x1="2" y1="18" x2="22" y2="18" stroke="#6D4C41" stroke-width="0.3" opacity="0.6"/>
    <line x1="2" y1="22" x2="22" y2="22" stroke="#6D4C41" stroke-width="0.3" opacity="0.6"/>
    <!-- Roof with gradient (moved down to cover rounded corners) -->
    <path d="M-3 12 L12 1 L27 12 Z" fill="url(#roofGradient)"/>
    <!-- Roof highlight -->
    <path d="M-2 12 L12 2 L26 12 Z" fill="#A1887F" opacity="0.3"/>
    <!-- Small roof shingles detail -->
    <path d="M0 10 Q4 8 8 10 Q12 8 16 10 Q20 8 24 10" stroke="#4E342E" stroke-width="0.5" fill="none" opacity="0.4"/>
    <!-- Main entrance hole (in front of wood grain) -->
    <circle cx="12" cy="18" r="4.5" fill="#424242"/>
    <circle cx="12" cy="18" r="3.8" fill="#212121"/>
    <!-- Entrance rim/edge -->
    <circle cx="12" cy="18" r="4.5" fill="none" stroke="#8D6E63" stroke-width="0.5"/>
    <!-- Small perch/landing below entrance -->
    <rect x="8" y="22" width="8" height="1.5" fill="#8D6E63" rx="0.5"/>
    <rect x="8.5" y="22.5" width="7" height="0.5" fill="#A1887F"/>
  </g>
  
  <!-- Duck - more polished and detailed -->
  <g transform="translate(32, 62)">
    <!-- Duck shadow -->
    <ellipse cx="9" cy="12" rx="13" ry="6" fill="#000000" opacity="0.1"/>
    <!-- Duck body with gradient -->
    <ellipse cx="8" cy="8" rx="12" ry="8" fill="url(#duckGradient)"/>
    <!-- Duck body highlight -->
    <ellipse cx="6" cy="6" rx="8" ry="5" fill="#FFFFFF" opacity="0.3"/>
    <!-- Duck head -->
    <circle cx="20" cy="4" r="6.5" fill="url(#duckGradient)"/>
    <!-- Head highlight -->
    <circle cx="18" cy="2" r="3" fill="#FFFFFF" opacity="0.4"/>
    <!-- Duck bill with gradient -->
    <path d="M26 4 L31 2.5 L31 5.5 Z" fill="#FF9800"/>
    <path d="M26 4 L29 3 L29 5 Z" fill="#FFB74D"/>
    <!-- Duck eye -->
    <circle cx="22" cy="2.5" r="1.8" fill="#212121"/>
    <circle cx="22.5" cy="2" r="0.6" fill="#FFFFFF"/>
    <!-- Duck wing with more detail -->
    <ellipse cx="12" cy="6" rx="7" ry="5" fill="#FFEB3B" opacity="0.8"/>
    <ellipse cx="10" cy="5" rx="4" ry="3" fill="#FFF176" opacity="0.6"/>
    <!-- Duck tail -->
    <path d="M1 8 Q-3 5 0 3 Q3 5 5 8" fill="#FFEB3B"/>
    <path d="M2 7 Q0 5 2 4" fill="#FFF176" opacity="0.7"/>
  </g>
  
  <!-- Refined ripples around duck -->
  <g opacity="0.3">
    <ellipse cx="40" cy="78" rx="18" ry="4" fill="none" stroke="#FFFFFF" stroke-width="1.5"/>
    <ellipse cx="40" cy="81" rx="25" ry="6" fill="none" stroke="#FFFFFF" stroke-width="1"/>
  </g>
  
  <!-- Cattails/reeds - more elegant -->
  <g transform="translate(12, 45)">
    <!-- Reed stems -->
    <rect x="0" y="18" width="2" height="30" fill="#4CAF50" rx="1"/>
    <rect x="6" y="22" width="2" height="26" fill="#388E3C" rx="1"/>
    <rect x="12" y="20" width="2" height="28" fill="#4CAF50" rx="1"/>
    <!-- Reed tops -->
    <ellipse cx="1" cy="16" rx="3" ry="6" fill="#795548"/>
    <ellipse cx="7" cy="20" rx="2.5" ry="5" fill="#8D6E63"/>
    <ellipse cx="13" cy="18" rx="3" ry="6" fill="#795548"/>
  </g>
  
  <!-- Lily pads - more refined -->
  <g>
    <ellipse cx="25" cy="95" rx="7" ry="5" fill="#388E3C" opacity="0.8"/>
    <path d="M25 95 L31 92" stroke="#2E7D32" stroke-width="1" fill="none"/>
    <circle cx="26" cy="93" r="0.8" fill="#FFFFFF" opacity="0.6"/>
    
    <ellipse cx="85" cy="98" rx="6" ry="4" fill="#43A047" opacity="0.8"/>
    <path d="M85 98 L90 96" stroke="#2E7D32" stroke-width="0.8" fill="none"/>
    
    <ellipse cx="105" cy="90" rx="5" ry="3.5" fill="#4CAF50" opacity="0.8"/>
    <path d="M105 90 L109 88" stroke="#388E3C" stroke-width="0.6" fill="none"/>
  </g>
  
  <!-- Subtle sparkles for water effect -->
  <g opacity="0.6">
    <path d="M70 75 L72 77 L70 79 L68 77 Z" fill="#FFFFFF"/>
    <path d="M25 68 L26 69 L25 70 L24 69 Z" fill="#FFFFFF"/>
    <path d="M95 82 L97 84 L95 86 L93 84 Z" fill="#FFFFFF"/>
    <circle cx="55" cy="88" r="1" fill="#FFFFFF"/>
    <circle cx="75" cy="70" r="0.8" fill="#FFFFFF"/>
  </g>
</svg>